<svg width="36" height="36" viewBox="0 0 36 36" fill="none" xmlns="http://www.w3.org/2000/svg">
<mask id="mask0_1_501" style="mask-type:alpha" maskUnits="userSpaceOnUse" x="0" y="0" width="36" height="36">
<rect width="36" height="36" fill="#D9D9D9"/>
</mask>
<g mask="url(#mask0_1_501)">
<path d="M8.7 26.5095C10.198 25.477 11.6884 24.6766 13.1711 24.1084C14.6539 23.5399 16.2635 23.2556 18 23.2556C19.7365 23.2556 21.35 23.5399 22.8405 24.1084C24.3308 24.6766 25.8249 25.477 27.3229 26.5095C28.4134 25.2462 29.2235 23.9123 29.7533 22.5075C30.283 21.1028 30.5479 19.6003 30.5479 18C30.5479 14.4615 29.3413 11.4855 26.928 9.072C24.5145 6.65875 21.5385 5.45213 18 5.45213C14.4615 5.45213 11.4855 6.65875 9.072 9.072C6.65875 11.4855 5.45213 14.4615 5.45213 18C5.45213 19.6003 5.72088 21.1028 6.25838 22.5075C6.79588 23.9123 7.60975 25.2462 8.7 26.5095ZM17.9918 18.8509C16.6435 18.8509 15.5093 18.3881 14.589 17.4626C13.6688 16.5369 13.2086 15.3999 13.2086 14.0516C13.2086 12.7031 13.6715 11.5688 14.5973 10.6485C15.5228 9.72825 16.6597 9.26813 18.0082 9.26813C19.3565 9.26813 20.4908 9.731 21.411 10.6567C22.3313 11.5822 22.7914 12.7193 22.7914 14.0678C22.7914 15.4163 22.3285 16.5505 21.4028 17.4705C20.4773 18.3908 19.3403 18.8509 17.9918 18.8509ZM18.0176 32.25C16.0424 32.25 14.1894 31.8779 12.4586 31.1336C10.7276 30.3894 9.21563 29.3696 7.92263 28.0744C6.62938 26.7794 5.61063 25.2704 4.86638 23.5474C4.12213 21.8244 3.75 19.9744 3.75 17.9974C3.75 16.0204 4.12213 14.1713 4.86638 12.45C5.61063 10.7288 6.63038 9.22062 7.92563 7.92562C9.22063 6.63037 10.7296 5.61063 12.4526 4.86638C14.1756 4.12213 16.0256 3.75 18.0026 3.75C19.9796 3.75 21.8287 4.12213 23.55 4.86638C25.2712 5.61063 26.7794 6.63037 28.0744 7.92562C29.3696 9.22062 30.3894 10.7291 31.1336 12.4511C31.8779 14.1731 32.25 16.0169 32.25 17.9824C32.25 19.9576 31.8779 21.8106 31.1336 23.5414C30.3894 25.2724 29.3696 26.7844 28.0744 28.0774C26.7794 29.3706 25.2709 30.3894 23.5489 31.1336C21.8269 31.8779 19.9831 32.25 18.0176 32.25ZM18 30.5479C19.3943 30.5479 20.7693 30.3263 22.125 29.883C23.4807 29.4398 24.7576 28.723 25.9556 27.7327C24.7576 26.852 23.4889 26.1693 22.1494 25.6845C20.8101 25.2 19.427 24.9578 18 24.9578C16.573 24.9578 15.1874 25.1976 13.8431 25.6774C12.4989 26.1571 11.2374 26.8422 10.0586 27.7327C11.2471 28.723 12.5193 29.4398 13.875 29.883C15.2307 30.3263 16.6057 30.5479 18 30.5479ZM18.0019 17.1491C18.8986 17.1491 19.6374 16.858 20.2181 16.2758C20.7991 15.6938 21.0896 14.9544 21.0896 14.0576C21.0896 13.1609 20.7985 12.4221 20.2162 11.8414C19.6342 11.2606 18.8949 10.9702 17.9981 10.9702C17.1014 10.9702 16.3626 11.2613 15.7819 11.8433C15.2009 12.4255 14.9104 13.165 14.9104 14.0617C14.9104 14.9585 15.2015 15.6973 15.7838 16.278C16.3658 16.8588 17.1051 17.1491 18.0019 17.1491Z" fill="white"/>
</g>
</svg>
