<svg width="103" height="104" viewBox="0 0 103 104" fill="none" xmlns="http://www.w3.org/2000/svg">
<path d="M80.0001 65.4001H50.0001V46.3657C53.2797 49.3249 57.5037 51.0001 62.0001 51.0001C71.9253 51.0001 80.0001 42.9253 80.0001 33.0001C80.0001 23.0749 71.9253 15.0001 62.0001 15.0001C52.0749 15.0001 44.0001 23.0749 44.0001 33.0001C44.0001 34.2217 44.1405 35.4373 44.3913 36.6397C44.2593 36.6313 44.1345 36.6001 44.0001 36.6001H27.2001C23.8917 36.6001 21.2001 39.2917 21.2001 42.6001V49.8025C20.1969 49.0477 18.9501 48.6001 17.6001 48.6001C15.6153 48.6001 14.0001 50.2153 14.0001 52.2001V67.0117C14.0001 68.6149 14.6253 70.1221 15.7581 71.2549L18.8001 74.2969V89.4001H50.0001V84.6001H65.2221C66.5733 87.4333 69.4581 89.4001 72.8001 89.4001H80.0001C84.6309 89.4001 88.4001 85.6309 88.4001 81.0001V73.8001C88.4001 69.1693 84.6309 65.4001 80.0001 65.4001ZM21.2001 75.0001H47.6001V79.8001H21.2001V75.0001ZM47.5557 42.1645C47.5737 42.3085 47.6001 42.4513 47.6001 42.6001V50.2585L39.2001 54.4585L31.0833 50.4001L47.5557 42.1645ZM36.5169 55.8001L23.6001 62.2585V49.3417L36.5169 55.8001ZM47.6001 52.9417V59.2585L32.7177 66.6997L32.7309 66.7261L21.5265 65.9797L47.6001 52.9417ZM47.6001 61.9417V67.7173L37.4085 67.0381L47.6001 61.9417ZM46.4001 33.0001C46.4001 24.3985 53.3985 17.4001 62.0001 17.4001C70.6017 17.4001 77.6001 24.3985 77.6001 33.0001C77.6001 41.6017 70.6017 48.6001 62.0001 48.6001C57.3261 48.6001 52.9809 46.5265 50.0001 42.9193V42.6001C50.0001 40.4209 48.8193 38.5273 47.0757 37.4761C46.6341 36.0097 46.4001 34.5073 46.4001 33.0001ZM46.4925 40.0129L40.4001 43.0585L32.2833 39.0001H44.0001C44.9685 39.0001 45.8445 39.3889 46.4925 40.0129ZM26.9637 39.0241L37.7157 44.4001L28.4001 49.0585L23.6001 46.6585V42.6001C23.6001 40.6957 25.0905 39.1477 26.9637 39.0241ZM17.6001 51.0001C19.5849 51.0001 21.2001 52.6153 21.2001 54.6001V63.4585L16.4001 65.8585V52.2001C16.4001 51.5377 16.9377 51.0001 17.6001 51.0001ZM17.4549 69.5581C17.1189 69.2221 16.8573 68.8297 16.6785 68.4025L17.2797 68.1013L47.6001 70.1233V72.6001H20.4969L17.4549 69.5581ZM21.2001 87.0001V82.2001H47.6001V87.0001H21.2001ZM50.0001 82.2001V67.8001H80.0001C83.3085 67.8001 86.0001 70.4917 86.0001 73.8001C86.0001 77.1085 83.3085 79.8001 80.0001 79.8001H70.4001C68.4153 79.8001 66.8001 78.1849 66.8001 76.2001C66.8001 74.5753 67.8885 73.2157 69.3693 72.7693C69.2697 73.0981 69.2001 73.4389 69.2001 73.8001C69.2001 75.7849 70.8153 77.4001 72.8001 77.4001H80.0001C81.9849 77.4001 83.6001 75.7849 83.6001 73.8001C83.6001 71.8153 81.9849 70.2001 80.0001 70.2001H75.2001H72.8001H70.4001C67.0917 70.2001 64.4001 72.8917 64.4001 76.2001V81.0001C64.4001 81.4081 64.4397 81.8065 64.4961 82.2001H50.0001ZM72.8001 72.6001H75.2001H80.0001C80.6625 72.6001 81.2001 73.1377 81.2001 73.8001C81.2001 74.4625 80.6625 75.0001 80.0001 75.0001H72.8001C72.1377 75.0001 71.6001 74.4625 71.6001 73.8001C71.6001 73.1377 72.1377 72.6001 72.8001 72.6001ZM86.0001 81.0001C86.0001 84.3085 83.3085 87.0001 80.0001 87.0001H72.8001C69.4917 87.0001 66.8001 84.3085 66.8001 81.0001V80.9689C67.8057 81.7309 69.0441 82.2001 70.4001 82.2001H80.0001C82.3497 82.2001 84.4737 81.2281 86.0001 79.6669V81.0001Z" fill="black" fill-opacity="0.75"/>
<path d="M58.3999 41.4H65.5999V36.6H70.3999V29.4H65.5999V24.6H58.3999V29.4H53.5999V36.6H58.3999V41.4ZM55.9999 34.2V31.8H60.7999V27H63.1999V31.8H67.9999V34.2H63.1999V39H60.7999V34.2H55.9999Z" fill="black" fill-opacity="0.75"/>
<path d="M61.9999 46.2C69.2779 46.2 75.1999 40.278 75.1999 33C75.1999 25.722 69.2779 19.8 61.9999 19.8C54.7219 19.8 48.7999 25.722 48.7999 33C48.7999 40.278 54.7219 46.2 61.9999 46.2ZM61.9999 22.2C67.9555 22.2 72.7999 27.0444 72.7999 33C72.7999 38.9556 67.9555 43.8 61.9999 43.8C56.0443 43.8 51.1999 38.9556 51.1999 33C51.1999 27.0444 56.0443 22.2 61.9999 22.2Z" fill="black" fill-opacity="0.75"/>
</svg>
