<svg width="36" height="36" viewBox="0 0 36 36" fill="none" xmlns="http://www.w3.org/2000/svg">
<mask id="mask0_1_498" style="mask-type:alpha" maskUnits="userSpaceOnUse" x="0" y="0" width="36" height="36">
<rect width="36" height="36" fill="#D9D9D9"/>
</mask>
<g mask="url(#mask0_1_498)">
<path d="M18 21.0319C19.1885 19.9434 20.1429 19.0466 20.8631 18.3416C21.5831 17.6369 22.1413 17.0336 22.5375 16.5319C22.9338 16.0299 23.1996 15.587 23.3351 15.2032C23.4706 14.8197 23.5384 14.4097 23.5384 13.9732C23.5384 13.1405 23.2399 12.4231 22.6429 11.8211C22.0456 11.2191 21.3306 10.9181 20.4979 10.9181C20.0114 10.9181 19.5436 11.0172 19.0946 11.2155C18.6456 11.4135 18.2808 11.6856 18 12.0319C17.7192 11.6856 17.3582 11.4135 16.917 11.2155C16.4755 11.0172 16.0039 10.9181 15.5021 10.9181C14.6694 10.9181 13.9544 11.2191 13.3571 11.8211C12.7601 12.4231 12.4616 13.1405 12.4616 13.9732C12.4616 14.4097 12.5231 14.8135 12.6461 15.1845C12.7691 15.5557 13.0288 15.9924 13.425 16.4944C13.8213 16.9961 14.378 17.6019 15.0953 18.3116C15.8125 19.0211 16.7808 19.9279 18 21.0319ZM8.25 30.375V7.26937C8.25 6.68862 8.4635 6.18287 8.8905 5.75212C9.3175 5.32137 9.82513 5.106 10.4134 5.106H25.5866C26.1749 5.106 26.6825 5.32137 27.1095 5.75212C27.5365 6.18287 27.75 6.68862 27.75 7.26937V30.375L18 26.1922L8.25 30.375ZM9.95213 27.7702L18 24.3547L26.0479 27.7702V7.26937C26.0479 7.15387 25.9999 7.04812 25.9039 6.95212C25.8076 6.85587 25.7019 6.80775 25.5866 6.80775H10.4134C10.2981 6.80775 10.1924 6.85587 10.0961 6.95212C10.0001 7.04812 9.95213 7.15387 9.95213 7.26937V27.7702Z" fill="white"/>
</g>
</svg>
