<svg width="41" height="40" viewBox="0 0 41 40" fill="none" xmlns="http://www.w3.org/2000/svg">
<mask id="mask0_1_568" style="mask-type:alpha" maskUnits="userSpaceOnUse" x="0" y="0" width="41" height="40">
<rect x="0.5" width="40" height="40" fill="#D9D9D9"/>
</mask>
<g mask="url(#mask0_1_568)">
<path d="M31.5672 31.6346V26.6701H30.0418V32.103L33.9264 35.7438L34.923 34.7513L31.5672 31.6346ZM20.2439 6.10922L9.2951 12.4296L20.5001 18.9359L31.6797 12.4296L20.7564 6.10922C20.6711 6.06645 20.5857 6.04506 20.5001 6.04506C20.4145 6.04506 20.3291 6.06645 20.2439 6.10922ZM6.33344 26.6505V13.3496C6.33344 12.9285 6.43677 12.5324 6.64344 12.1613C6.85038 11.7902 7.14774 11.4908 7.53552 11.263L19.298 4.47131C19.5097 4.34298 19.7083 4.25798 19.8939 4.21631C20.0797 4.17464 20.2801 4.15381 20.4951 4.15381C20.7101 4.15381 20.919 4.17464 21.1218 4.21631C21.3248 4.25798 21.5183 4.34298 21.7022 4.47131L33.4647 11.263C33.8525 11.4908 34.1498 11.7902 34.3568 12.1613C34.5634 12.5324 34.6668 12.9285 34.6668 13.3496V21.0896H32.7755V13.9584L20.5259 21.1059L8.22469 13.9838V26.6667C8.22469 26.7523 8.24593 26.8324 8.28843 26.9071C8.33121 26.9819 8.39538 27.0459 8.48093 27.0992L20.5643 34.0834V36.2371L7.53552 28.7371C7.14774 28.5094 6.85038 28.2099 6.64344 27.8388C6.43677 27.4677 6.33344 27.0716 6.33344 26.6505ZM30.8034 38.9584C28.8298 38.9584 27.1373 38.261 25.7259 36.8663C24.3148 35.4716 23.6093 33.7734 23.6093 31.7717C23.6093 29.7862 24.3152 28.0891 25.7272 26.6805C27.1391 25.2719 28.8319 24.5676 30.8055 24.5676C32.7791 24.5676 34.4716 25.2701 35.883 26.6751C37.2944 28.0801 38.0001 29.7845 38.0001 31.7884C38.0001 33.7856 37.2941 35.4799 35.8822 36.8713C34.47 38.2627 32.777 38.9584 30.8034 38.9584Z" fill="#EB1700"/>
</g>
</svg>
