<svg width="103" height="104" viewBox="0 0 103 104" fill="none" xmlns="http://www.w3.org/2000/svg">
<path d="M68.7418 60.4579C69.8713 60.4579 70.9334 60.018 71.7322 59.2194L75.3772 55.5744C76.6898 54.2617 77.4127 52.5163 77.4127 50.6601C77.4127 47.8663 75.1399 45.5934 72.3461 45.5934C70.961 45.5934 69.6763 46.1452 68.7416 47.0946C67.807 46.1452 66.5224 45.5934 65.1371 45.5934C62.3435 45.5934 60.0706 47.8662 60.0706 50.6601C60.0706 52.5163 60.7936 54.2617 62.1062 55.5745L65.7511 59.2194C66.5503 60.018 67.6123 60.4579 68.7418 60.4579ZM62.5483 50.6601C62.5483 49.2324 63.7097 48.0709 65.1373 48.0709C66.1244 48.0709 67.0115 48.6193 67.4531 49.5022L68.7416 52.0795L70.0301 49.5022C70.4716 48.6193 71.359 48.0709 72.346 48.0709C73.7735 48.0709 74.935 49.2324 74.935 50.6601C74.935 51.8547 74.4697 52.9779 73.625 53.8227L69.9802 57.4675C69.6493 57.7984 69.2092 57.9805 68.7415 57.9805C68.2738 57.9805 67.8337 57.7983 67.5028 57.4675L63.8581 53.8228C63.0134 52.9777 62.5483 51.8547 62.5483 50.6601Z" fill="black" fill-opacity="0.75"/>
<path d="M83.6064 40.6387H79.8903V18.252C84.0865 17.6488 87.3225 14.0314 87.3225 9.6709C87.3225 4.8898 83.4325 1 78.6514 1C73.8703 1 69.9805 4.8898 69.9805 9.6709C69.9805 14.0314 73.2165 17.649 77.4127 18.252V40.6387H60.0708V25.6842C64.267 25.081 67.503 21.4636 67.503 17.1031C67.503 12.322 63.6132 8.4322 58.8321 8.4322C54.051 8.4322 50.1612 12.322 50.1612 17.1031C50.1612 21.4636 53.3971 25.0812 57.5934 25.6842V40.6387H45.2064V23.9161C45.2064 18.7935 41.0388 14.6259 35.9161 14.6259C30.7935 14.6259 26.6259 18.7935 26.6259 23.9161V33.2064H22.9096V40.6385H19.1934C15.7783 40.6385 12.9999 43.417 12.9999 46.8321V71.6065C12.9999 75.0216 15.7783 77.8 19.1934 77.8H65.8174H68.1223H75.5545C83.4096 77.8 89.7999 71.4097 89.7999 63.5548V46.8322C89.7999 43.4172 87.0214 40.6387 83.6064 40.6387ZM72.4579 9.6709C72.4579 6.25585 75.2364 3.4774 78.6514 3.4774C82.0665 3.4774 84.8449 6.25585 84.8449 9.6709C84.8449 13.086 82.0665 15.8644 78.6514 15.8644C75.2364 15.8644 72.4579 13.0861 72.4579 9.6709ZM52.6386 17.1033C52.6386 13.6882 55.417 10.9098 58.8321 10.9098C62.2471 10.9098 65.0256 13.6882 65.0256 17.1033C65.0256 20.5183 62.2471 23.2968 58.8321 23.2968C55.417 23.2968 52.6386 20.5183 52.6386 17.1033ZM29.1031 23.9161C29.1031 20.1594 32.1594 17.1033 35.916 17.1033C39.6726 17.1033 42.7288 20.1595 42.7288 23.9161V40.6387H32.8191V33.2065H29.103V23.9161H29.1031ZM25.387 35.6839H30.3418V40.6387H25.387V35.6839ZM15.4773 71.6065V46.8322C15.4773 45.2175 16.513 43.8406 17.9547 43.3291V61.6968C17.9547 65.1118 20.7331 67.8903 24.1482 67.8903H50.6343L51.0148 68.6515C52.3887 71.3992 54.4954 73.7058 57.1077 75.3226H19.1934C17.1442 75.3226 15.4773 73.6555 15.4773 71.6065ZM65.8176 75.3226C60.4528 75.3226 55.63 72.3418 53.2308 67.5435L52.1655 65.4129H24.1483C22.0992 65.4129 20.4322 63.7458 20.4322 61.6968V43.1161H22.9096H32.8194H79.8903V63.5548C79.8903 70.0435 74.6113 75.3226 68.1225 75.3226H65.8176ZM87.3225 63.5548C87.3225 69.8394 82.3705 74.989 76.1635 75.3069C79.9071 72.7374 82.3677 68.4283 82.3677 63.5548V43.1161H83.6064C85.6555 43.1161 87.3225 44.7832 87.3225 46.8322V63.5548Z" fill="black" fill-opacity="0.75"/>
<path d="M52.6385 45.5934H25.3869C24.0209 45.5934 22.9095 46.7049 22.9095 48.0708V60.4579C22.9095 61.824 24.021 62.9353 25.3869 62.9353H52.6385C54.0045 62.9353 55.1159 61.8238 55.1159 60.4579V48.0708C55.1159 46.7049 54.0045 45.5934 52.6385 45.5934ZM52.6385 60.4579H25.3869V48.0708H52.6385L52.64 60.4579C52.64 60.4579 52.6395 60.4579 52.6385 60.4579Z" fill="black" fill-opacity="0.75"/>
<path d="M42.7288 70.3677H37.774V72.8451H42.7288V70.3677Z" fill="black" fill-opacity="0.75"/>
<path d="M22.9095 70.3677H17.9547V72.8451H22.9095V70.3677Z" fill="black" fill-opacity="0.75"/>
<path d="M32.8192 70.3677H27.8644V72.8451H32.8192V70.3677Z" fill="black" fill-opacity="0.75"/>
<path d="M74.9353 67.8902V65.4128C74.9353 64.0468 73.8238 62.9354 72.4579 62.9354H65.0257C63.6596 62.9354 62.5483 64.0469 62.5483 65.4128V67.8902C62.5483 69.2563 63.6598 70.3676 65.0257 70.3676H72.4579C73.8239 70.3678 74.9353 69.2563 74.9353 67.8902ZM65.0257 65.4128H72.4579L72.4594 67.8902C72.4594 67.8902 72.4589 67.8902 72.4579 67.8902H65.0257V65.4128Z" fill="black" fill-opacity="0.75"/>
<path d="M41.6242 54.856L37.774 49.7227L34.2695 54.3953L32.3459 50.5484H27.8644V53.0258H30.8149L33.8462 59.0885L37.774 53.8516L41.3561 58.6279L44.4805 55.5032H50.1611V53.0258H43.4546L41.6242 54.856Z" fill="black" fill-opacity="0.75"/>
<path d="M62.5483 17.1032C62.5483 15.054 60.8813 13.3871 58.8322 13.3871C56.783 13.3871 55.1161 15.054 55.1161 17.1032C55.1161 19.1523 56.783 20.8193 58.8322 20.8193C60.8813 20.8193 62.5483 19.1523 62.5483 17.1032ZM57.5933 17.1032C57.5933 16.4202 58.1491 15.8645 58.832 15.8645C59.515 15.8645 60.0707 16.4202 60.0707 17.1032C60.0707 17.7861 59.515 18.3419 58.832 18.3419C58.1491 18.3419 57.5933 17.7861 57.5933 17.1032Z" fill="black" fill-opacity="0.75"/>
<path d="M82.3676 9.67081C82.3676 7.62166 80.7007 5.95471 78.6515 5.95471C76.6024 5.95471 74.9354 7.62166 74.9354 9.67081C74.9354 11.72 76.6024 13.3869 78.6515 13.3869C80.7007 13.3869 82.3676 11.72 82.3676 9.67081ZM77.4127 9.67081C77.4127 8.98786 77.9684 8.43211 78.6514 8.43211C79.3343 8.43211 79.8901 8.98786 79.8901 9.67081C79.8901 10.3538 79.3343 10.9095 78.6514 10.9095C77.9684 10.9097 77.4127 10.3539 77.4127 9.67081Z" fill="black" fill-opacity="0.75"/>
</svg>
