<svg width="41" height="40" viewBox="0 0 41 40" fill="none" xmlns="http://www.w3.org/2000/svg">
<mask id="mask0_1_575" style="mask-type:alpha" maskUnits="userSpaceOnUse" x="0" y="0" width="41" height="40">
<rect x="0.5" width="40" height="40" fill="#D9D9D9"/>
</mask>
<g mask="url(#mask0_1_575)">
<path d="M13.75 34.1666H8.73712C8.08351 34.1666 7.51949 33.9294 7.04504 33.455C6.5706 32.9805 6.33337 32.4165 6.33337 31.7629V20C6.33337 18.0341 6.70518 16.1923 7.44879 14.4746C8.1924 12.7565 9.2031 11.2586 10.4809 9.98081C11.7587 8.70303 13.2566 7.69234 14.9746 6.94873C16.6924 6.20512 18.5342 5.83331 20.5 5.83331C22.4659 5.83331 24.3077 6.20512 26.0255 6.94873C27.7435 7.69234 29.2414 8.70303 30.5192 9.98081C31.797 11.2586 32.8077 12.7565 33.5513 14.4746C34.2949 16.1923 34.6667 18.0341 34.6667 20V31.7629C34.6667 32.4165 34.4295 32.9805 33.955 33.455C33.4806 33.9294 32.9166 34.1666 32.263 34.1666H27.25V23.0996H32.7755V20C32.7755 16.5803 31.5846 13.6794 29.203 11.2975C26.8213 8.91554 23.9209 7.72456 20.5017 7.72456C17.0825 7.72456 14.1816 8.91554 11.7988 11.2975C9.41601 13.6794 8.22462 16.5803 8.22462 20V23.0996H13.75V34.1666ZM11.8592 24.9904H8.22462V31.7629C8.22462 31.891 8.27796 32.0085 8.38462 32.1154C8.49157 32.2221 8.60907 32.2754 8.73712 32.2754H11.8592V24.9904ZM29.1409 24.9904V32.2754H32.263C32.391 32.2754 32.5085 32.2221 32.6155 32.1154C32.7221 32.0085 32.7755 31.891 32.7755 31.7629V24.9904H29.1409Z" fill="#EB1700"/>
</g>
</svg>
