<svg width="103" height="104" viewBox="0 0 103 104" fill="none" xmlns="http://www.w3.org/2000/svg">
<path d="M77.9001 46.6864V43.0024C77.9001 42.6841 77.7737 42.3789 77.5487 42.1539C77.3236 41.9288 77.0184 41.8024 76.7001 41.8024H73.1001V38.2024C73.1001 37.2476 73.4794 36.3319 74.1546 35.6568C74.8297 34.9817 75.7454 34.6024 76.7001 34.6024H88.7001C89.0184 34.6024 89.3236 34.476 89.5487 34.2509C89.7737 34.0259 89.9001 33.7207 89.9001 33.4024C89.9001 33.0841 89.7737 32.7789 89.5487 32.5539C89.3236 32.3288 89.0184 32.2024 88.7001 32.2024H76.7001C75.1088 32.2024 73.5827 32.8345 72.4575 33.9598C71.3323 35.085 70.7001 36.6111 70.7001 38.2024V41.8024H67.1001C66.7819 41.8024 66.4767 41.9288 66.2516 42.1539C66.0266 42.3789 65.9001 42.6841 65.9001 43.0024V46.6024H58.1001C57.7819 46.6024 57.4767 46.7288 57.2516 46.9539C57.0266 47.1789 56.9001 47.4841 56.9001 47.8024C56.9001 48.1207 57.0266 48.4259 57.2516 48.6509C57.4767 48.876 57.7819 49.0024 58.1001 49.0024H76.4361C79.3695 49.0056 82.1819 50.1723 84.2561 52.2465C86.3303 54.3207 87.497 57.133 87.5001 60.0664V70.9384C87.4986 72.1218 87.0277 73.2563 86.1909 74.0932C85.3541 74.93 84.2196 75.4008 83.0361 75.4024H48.7641C47.5807 75.4008 46.4462 74.93 45.6094 74.0932C44.7726 73.2563 44.3017 72.1218 44.3001 70.9384V63.4024C44.3001 63.0841 44.1737 62.7789 43.9487 62.5539C43.7236 62.3288 43.4184 62.2024 43.1001 62.2024C42.7819 62.2024 42.4767 62.3288 42.2516 62.5539C42.0266 62.7789 41.9001 63.0841 41.9001 63.4024V70.9384C41.9017 72.7583 42.6254 74.5033 43.9123 75.7902C45.1992 77.0771 46.9442 77.8008 48.7641 77.8024H83.0361C84.8561 77.8008 86.6011 77.0771 87.888 75.7902C89.1749 74.5033 89.8986 72.7583 89.9001 70.9384V60.0664C89.8965 56.7505 88.6704 53.5523 86.4564 51.0838C84.2425 48.6152 81.1961 47.0496 77.9001 46.6864ZM68.3001 46.6024V44.2024H75.5001V46.6024H68.3001Z" fill="black" fill-opacity="0.75"/>
<path d="M48.896 60.8763C48.764 61.2783 48.662 61.6203 48.59 61.9143C48.5471 62.066 48.5345 62.2246 48.5528 62.3812C48.5712 62.5378 48.6202 62.6892 48.6971 62.8268C48.8524 63.1047 49.1117 63.3096 49.418 63.3963C49.7244 63.483 50.0526 63.4445 50.3305 63.2893C50.4681 63.2124 50.5893 63.1091 50.687 62.9854C50.7847 62.8617 50.8571 62.72 50.9 62.5683C50.9 62.5683 51.596 60.4383 51.668 60.2403C52.97 56.5503 54.938 50.9763 53.924 46.9143C53.084 43.5663 49.724 40.9743 46.196 38.2263C44.1316 36.7372 42.2112 35.0578 40.46 33.2103C36.74 28.9563 35.96 22.4823 35.96 17.8023C35.96 13.4943 35.408 8.95232 31.406 4.95632C30.116 3.67232 27.446 1.00232 19.754 1.00232C19.4358 1.00232 19.1306 1.12875 18.9055 1.35379C18.6805 1.57883 18.554 1.88406 18.554 2.20232C18.554 2.52058 18.6805 2.8258 18.9055 3.05085C19.1306 3.27589 19.4358 3.40232 19.754 3.40232C26.456 3.40232 28.568 5.51432 29.702 6.64832C32.9 9.84632 33.554 13.4163 33.554 17.8023C33.554 22.8963 34.436 29.9763 38.648 34.7943C40.5025 36.7565 42.5352 38.5422 44.72 40.1283C47.924 42.6063 50.954 44.9283 51.59 47.4903C52.364 50.5863 50.822 55.3803 49.7 58.6023C47.3 57.6243 43.298 57.2943 40.7 57.5583C39.23 57.7083 38.264 56.4483 37.868 55.1583C37.58 54.2403 36.962 52.2723 36.668 51.2883C36.5301 50.6635 36.2055 50.0953 35.7372 49.6592C35.2689 49.223 34.6791 48.9395 34.046 48.8463L21.194 47.8803C21.1181 47.8726 21.0448 47.8482 20.9794 47.8088C20.9141 47.7694 20.8583 47.7159 20.816 47.6523C20.768 47.5863 16.016 40.4523 15.548 33.9183C15.068 27.2043 18.206 18.8823 20.726 12.1923C21.362 10.5123 21.962 8.92232 22.43 7.52432C22.4932 7.37251 22.5245 7.20933 22.5219 7.04493C22.5194 6.88053 22.4831 6.7184 22.4153 6.5686C22.3475 6.41881 22.2496 6.28455 22.1278 6.17415C22.0059 6.06375 21.8627 5.97957 21.707 5.92684C21.5512 5.8741 21.3863 5.85393 21.2224 5.86758C21.0586 5.88123 20.8993 5.92841 20.7544 6.00619C20.6096 6.08397 20.4822 6.19069 20.3803 6.31973C20.2784 6.44877 20.2041 6.59737 20.162 6.75632C19.7 8.11232 19.1 9.68432 18.5 11.3463C15.878 18.2523 12.638 26.8503 13.154 34.0863C13.592 40.1883 17.504 47.0823 18.842 49.0023C19.0852 49.3552 19.4032 49.6501 19.7735 49.8658C20.1438 50.0816 20.5571 50.2129 20.984 50.2503L22.1 50.3403V55.6023H21.548C21.3039 55.6027 21.0657 55.6776 20.8652 55.817C20.6647 55.9564 20.5115 56.1536 20.426 56.3823L18.626 61.1823C18.5598 61.375 18.5413 61.5809 18.572 61.7823L20.372 71.9823C20.4219 72.263 20.57 72.5167 20.7899 72.6981C21.0098 72.8795 21.287 72.9767 21.572 72.9723H23.372V76.5723C23.372 76.8906 23.4985 77.1958 23.7235 77.4208C23.9486 77.6459 24.2538 77.7723 24.572 77.7723C24.8903 77.7723 25.1955 77.6459 25.4206 77.4208C25.6456 77.1958 25.772 76.8906 25.772 76.5723V72.9723H28.172V76.5723C28.172 76.8906 28.2985 77.1958 28.5235 77.4208C28.7486 77.6459 29.0538 77.7723 29.372 77.7723C29.6903 77.7723 29.9955 77.6459 30.2206 77.4208C30.4456 77.1958 30.572 76.8906 30.572 76.5723V72.9723H32.372C32.657 72.9767 32.9343 72.8795 33.1542 72.6981C33.3741 72.5167 33.5222 72.263 33.572 71.9823L35.372 61.7823C35.3999 61.5808 35.3814 61.3756 35.318 61.1823L33.518 56.3823C33.4299 56.1458 33.2693 55.943 33.0593 55.803C32.8492 55.663 32.6003 55.5927 32.348 55.6023H31.7V51.0963L33.854 51.2583C34.1 51.2583 34.238 51.4863 34.322 51.7203C34.406 51.9543 34.652 52.8543 35.552 55.7583C36.152 58.4463 38.444 60.2043 40.952 59.9583C44.066 59.6283 47.57 60.2823 48.896 60.8763ZM32.42 60.4023H25.1C24.7818 60.4023 24.4766 60.5287 24.2515 60.7538C24.0265 60.9788 23.9 61.2841 23.9 61.6023C23.9 61.9206 24.0265 62.2258 24.2515 62.4509C24.4766 62.6759 24.7818 62.8023 25.1 62.8023H32.72L31.346 70.6023H22.556L20.99 61.7163L22.382 58.0023H31.52L32.42 60.4023ZM29.3 55.6023H24.5V50.5383L29.3 50.9103V55.6023Z" fill="black" fill-opacity="0.75"/>
<path d="M24.5961 31.3683C21.9501 32.3283 20.7261 35.6463 21.8601 38.7483C22.8861 41.5683 25.8561 43.6803 28.7061 42.6363C31.3521 41.6763 32.5761 38.3643 31.4421 35.2563C30.3081 32.1483 27.2361 30.4023 24.5961 31.3683ZM27.8841 40.3683C26.1861 40.9683 24.6141 39.2823 24.1161 37.9083C23.4321 36.0483 24.0201 34.1103 25.4181 33.6003C27.0501 33.0003 28.6821 34.6683 29.1861 36.0603C29.9001 37.9383 29.3001 39.8763 27.8841 40.3863V40.3683Z" fill="black" fill-opacity="0.75"/>
<path d="M71.3 56.5023C71.3 55.4343 70.9833 54.3902 70.3899 53.5022C69.7966 52.6142 68.9532 51.9221 67.9665 51.5133C66.9798 51.1046 65.894 50.9977 64.8465 51.2061C63.799 51.4144 62.8368 51.9287 62.0816 52.6839C61.3264 53.4391 60.8121 54.4013 60.6038 55.4488C60.3954 56.4963 60.5023 57.5821 60.9111 58.5688C61.3198 59.5555 62.0119 60.3989 62.8999 60.9922C63.7879 61.5856 64.832 61.9023 65.9 61.9023C67.3322 61.9023 68.7057 61.3334 69.7184 60.3207C70.7311 59.308 71.3 57.9345 71.3 56.5023ZM65.9 59.5023C65.3067 59.5023 64.7266 59.3264 64.2333 58.9967C63.7399 58.6671 63.3554 58.1985 63.1284 57.6503C62.9013 57.1022 62.8419 56.499 62.9576 55.917C63.0734 55.3351 63.3591 54.8005 63.7787 54.381C64.1982 53.9614 64.7328 53.6757 65.3147 53.5599C65.8967 53.4442 66.4999 53.5036 67.048 53.7307C67.5962 53.9577 68.0648 54.3422 68.3944 54.8356C68.7241 55.3289 68.9 55.909 68.9 56.5023C68.9 57.2979 68.5839 58.061 68.0213 58.6236C67.4587 59.1862 66.6957 59.5023 65.9 59.5023Z" fill="black" fill-opacity="0.75"/>
<path d="M56.3 65.8022H51.5C51.1818 65.8022 50.8766 65.9287 50.6515 66.1537C50.4265 66.3788 50.3 66.684 50.3 67.0022C50.3 67.3205 50.4265 67.6257 50.6515 67.8508C50.8766 68.0758 51.1818 68.2022 51.5 68.2022H56.3C56.6183 68.2022 56.9235 68.0758 57.1486 67.8508C57.3736 67.6257 57.5 67.3205 57.5 67.0022C57.5 66.684 57.3736 66.3788 57.1486 66.1537C56.9235 65.9287 56.6183 65.8022 56.3 65.8022Z" fill="black" fill-opacity="0.75"/>
<path d="M68.3 65.8022H63.5C63.1818 65.8022 62.8766 65.9287 62.6515 66.1537C62.4265 66.3788 62.3 66.684 62.3 67.0022C62.3 67.3205 62.4265 67.6257 62.6515 67.8508C62.8766 68.0758 63.1818 68.2022 63.5 68.2022H68.3C68.6183 68.2022 68.9235 68.0758 69.1486 67.8508C69.3736 67.6257 69.5 67.3205 69.5 67.0022C69.5 66.684 69.3736 66.3788 69.1486 66.1537C68.9235 65.9287 68.6183 65.8022 68.3 65.8022Z" fill="black" fill-opacity="0.75"/>
<path d="M75.5 68.2022H80.3C80.6183 68.2022 80.9235 68.0758 81.1486 67.8508C81.3736 67.6257 81.5 67.3205 81.5 67.0022C81.5 66.684 81.3736 66.3788 81.1486 66.1537C80.9235 65.9287 80.6183 65.8022 80.3 65.8022H75.5C75.1818 65.8022 74.8766 65.9287 74.6515 66.1537C74.4265 66.3788 74.3 66.684 74.3 67.0022C74.3 67.3205 74.4265 67.6257 74.6515 67.8508C74.8766 68.0758 75.1818 68.2022 75.5 68.2022Z" fill="black" fill-opacity="0.75"/>
<path d="M56.3 70.6023H51.5C51.1818 70.6023 50.8766 70.7287 50.6515 70.9538C50.4265 71.1788 50.3 71.484 50.3 71.8023C50.3 72.1206 50.4265 72.4258 50.6515 72.6508C50.8766 72.8759 51.1818 73.0023 51.5 73.0023H56.3C56.6183 73.0023 56.9235 72.8759 57.1486 72.6508C57.3736 72.4258 57.5 72.1206 57.5 71.8023C57.5 71.484 57.3736 71.1788 57.1486 70.9538C56.9235 70.7287 56.6183 70.6023 56.3 70.6023Z" fill="black" fill-opacity="0.75"/>
<path d="M68.3 70.6023H63.5C63.1818 70.6023 62.8766 70.7287 62.6515 70.9538C62.4265 71.1788 62.3 71.484 62.3 71.8023C62.3 72.1206 62.4265 72.4258 62.6515 72.6508C62.8766 72.8759 63.1818 73.0023 63.5 73.0023H68.3C68.6183 73.0023 68.9235 72.8759 69.1486 72.6508C69.3736 72.4258 69.5 72.1206 69.5 71.8023C69.5 71.484 69.3736 71.1788 69.1486 70.9538C68.9235 70.7287 68.6183 70.6023 68.3 70.6023Z" fill="black" fill-opacity="0.75"/>
<path d="M75.5 73.0023H80.3C80.6183 73.0023 80.9235 72.8759 81.1486 72.6508C81.3736 72.4258 81.5 72.1206 81.5 71.8023C81.5 71.484 81.3736 71.1788 81.1486 70.9538C80.9235 70.7287 80.6183 70.6023 80.3 70.6023H75.5C75.1818 70.6023 74.8766 70.7287 74.6515 70.9538C74.4265 71.1788 74.3 71.484 74.3 71.8023C74.3 72.1206 74.4265 72.4258 74.6515 72.6508C74.8766 72.8759 75.1818 73.0023 75.5 73.0023Z" fill="black" fill-opacity="0.75"/>
<path d="M54.212 10.2244C51.2606 9.17444 48.0374 9.17444 45.086 10.2244C43.8822 10.6931 42.5973 10.9174 41.306 10.8844C40.9877 10.8844 40.6825 11.0108 40.4574 11.2359C40.2324 11.4609 40.106 11.7661 40.106 12.0844C40.106 12.4027 40.2324 12.7079 40.4574 12.9329C40.6825 13.158 40.9877 13.2844 41.306 13.2844C42.8647 13.3158 44.4149 13.0469 45.872 12.4924C48.3163 11.6193 50.9876 11.6193 53.432 12.4924C56.3854 13.5423 59.6105 13.5423 62.564 12.4924C63.7677 12.0237 65.0526 11.7994 66.344 11.8324C66.6622 11.8324 66.9674 11.706 67.1925 11.4809C67.4175 11.2559 67.544 10.9507 67.544 10.6324C67.544 10.3141 67.4175 10.0089 67.1925 9.78387C66.9674 9.55882 66.6622 9.43239 66.344 9.43239C64.7852 9.40101 63.235 9.6699 61.778 10.2244C59.332 11.1004 56.6579 11.1004 54.212 10.2244Z" fill="black" fill-opacity="0.75"/>
<path d="M35.8341 4.86033C37.3925 4.88861 38.9421 4.61982 40.4001 4.06833C42.8439 3.1923 45.5162 3.1923 47.96 4.06833C50.913 5.12119 54.1391 5.12119 57.092 4.06833C58.2953 3.59761 59.5803 3.3712 60.8721 3.40233C61.1903 3.40233 61.4955 3.27591 61.7206 3.05086C61.9456 2.82582 62.0721 2.52059 62.0721 2.20233C62.0721 1.88408 61.9456 1.57885 61.7206 1.35381C61.4955 1.12876 61.1903 1.00233 60.8721 1.00233C59.3113 0.970173 57.759 1.23908 56.3 1.79433C53.8562 2.67037 51.1839 2.67037 48.7401 1.79433C45.7866 0.744433 42.5615 0.744433 39.6081 1.79433C38.4035 2.26011 37.1191 2.48436 35.8281 2.45434C35.5098 2.45434 35.2046 2.58076 34.9795 2.80581C34.7545 3.03085 34.6281 3.33608 34.6281 3.65433C34.6281 3.97259 34.7545 4.27782 34.9795 4.50286C35.2046 4.72791 35.5098 4.85433 35.8281 4.85433L35.8341 4.86033Z" fill="black" fill-opacity="0.75"/>
<path d="M59.7139 18.5344C56.761 17.4815 53.5349 17.4815 50.5819 18.5344C49.3791 18.9984 48.0967 19.2206 46.8079 19.1884C46.4897 19.1884 46.1844 19.3148 45.9594 19.5399C45.7343 19.7649 45.6079 20.0701 45.6079 20.3884C45.6079 20.7067 45.7343 21.0119 45.9594 21.2369C46.1844 21.462 46.4897 21.5884 46.8079 21.5884C48.3662 21.6217 49.9164 21.3548 51.3739 20.8024C53.8183 19.9293 56.4895 19.9293 58.9339 20.8024C61.8874 21.8523 65.1124 21.8523 68.0659 20.8024C69.27 20.3356 70.555 20.1133 71.8459 20.1484C72.1642 20.1484 72.4694 20.022 72.6944 19.7969C72.9195 19.5719 73.0459 19.2667 73.0459 18.9484C73.0459 18.6301 72.9195 18.3249 72.6944 18.0999C72.4694 17.8748 72.1642 17.7484 71.8459 17.7484C70.2879 17.7188 68.7384 17.9855 67.2799 18.5344C64.834 19.4104 62.1598 19.4104 59.7139 18.5344Z" fill="black" fill-opacity="0.75"/>
</svg>
