<svg width="41" height="40" viewBox="0 0 41 40" fill="none" xmlns="http://www.w3.org/2000/svg">
<mask id="mask0_1_550" style="mask-type:alpha" maskUnits="userSpaceOnUse" x="0" y="0" width="41" height="40">
<rect x="0.5" width="40" height="40" fill="#D9D9D9"/>
</mask>
<g mask="url(#mask0_1_550)">
<path d="M19.5546 33.5034V20.5321L8.22458 13.9838V26.6667C8.22458 26.7523 8.24583 26.8324 8.28833 26.9071C8.33111 26.9819 8.39527 27.0459 8.48083 27.0992L19.5546 33.5034ZM21.4454 33.5034L32.5192 27.0992C32.6047 27.0459 32.6689 26.9819 32.7117 26.9071C32.7542 26.8324 32.7754 26.7523 32.7754 26.6667V13.9584L21.4454 20.5321V33.5034ZM19.2979 35.5288L7.53541 28.7371C7.15708 28.5258 6.86222 28.2309 6.65083 27.8526C6.43916 27.4745 6.33333 27.0738 6.33333 26.6505V13.3496C6.33333 12.9263 6.43916 12.5256 6.65083 12.1476C6.86222 11.7692 7.15708 11.4744 7.53541 11.263L19.2979 4.47131C19.6762 4.25964 20.0769 4.15381 20.5 4.15381C20.9231 4.15381 21.3237 4.25964 21.7021 4.47131L33.4646 11.263C33.8429 11.4744 34.1378 11.7692 34.3492 12.1476C34.5608 12.5256 34.6667 12.9263 34.6667 13.3496V26.6505C34.6667 27.0738 34.5608 27.4745 34.3492 27.8526C34.1378 28.2309 33.8429 28.5258 33.4646 28.7371L21.7021 35.5288C21.3237 35.7405 20.9231 35.8463 20.5 35.8463C20.0769 35.8463 19.6762 35.7405 19.2979 35.5288ZM27.045 15.1121L31.6796 12.4296L20.7562 6.10923C20.671 6.06645 20.5856 6.04506 20.5 6.04506C20.4144 6.04506 20.329 6.06645 20.2437 6.10923L15.8975 8.61548L27.045 15.1121ZM20.5 18.9359L25.17 16.2021L13.9646 9.73714L9.295 12.4296L20.5 18.9359Z" fill="#EB1700"/>
</g>
</svg>




