<svg width="28" height="28" viewBox="0 0 28 28" fill="none" xmlns="http://www.w3.org/2000/svg">
<mask id="mask0_1_526" style="mask-type:alpha" maskUnits="userSpaceOnUse" x="0" y="0" width="28" height="28">
<rect width="28" height="28" fill="#D9D9D9"/>
</mask>
<g mask="url(#mask0_1_526)">
<path d="M14.7459 12.997V4.9248C14.7459 4.68641 14.8268 4.48652 14.9886 4.32513C15.1504 4.16394 15.3509 4.08334 15.59 4.08334H23.0754C23.3147 4.08334 23.5145 4.16394 23.6747 4.32513C23.8352 4.48652 23.9154 4.68641 23.9154 4.9248V9.73934C23.9154 9.97054 23.8348 10.1686 23.6736 10.3335C23.5122 10.4984 23.3123 10.5808 23.0739 10.5808H17.2744L14.7459 12.997ZM16.0695 9.25722H22.5915V5.40722H16.0695V9.25722ZM22.6139 23.9167C20.5454 23.9167 18.4126 23.3947 16.2154 22.3507C14.0181 21.3066 11.9686 19.8317 10.0667 17.9261C8.16507 16.0206 6.69216 13.9711 5.64799 11.7778C4.60402 9.58427 4.08203 7.45326 4.08203 5.38476C4.08203 5.01298 4.20492 4.70314 4.4507 4.45522C4.69648 4.2073 5.0036 4.08334 5.37207 4.08334H8.70086C9.00498 4.08334 9.26174 4.18241 9.47116 4.38055C9.68057 4.57889 9.82787 4.83507 9.91303 5.14909L10.6087 8.27518C10.6491 8.56937 10.6394 8.83382 10.5795 9.06851C10.5196 9.3034 10.4059 9.50086 10.2385 9.66088L7.48549 12.3419C8.00602 13.235 8.55571 14.0621 9.13457 14.8234C9.71343 15.5846 10.3394 16.2996 11.0126 16.9683C11.7394 17.7146 12.5127 18.3959 13.3322 19.0123C14.152 19.6285 15.0294 20.1886 15.9642 20.6926L18.6114 17.969C18.8059 17.7551 19.0235 17.6111 19.2644 17.5371C19.5054 17.463 19.7566 17.4454 20.0181 17.4843L22.8496 18.1081C23.1636 18.1783 23.4198 18.3364 23.6182 18.5824C23.8163 18.8284 23.9154 19.107 23.9154 19.4183V22.6266C23.9154 22.9951 23.7914 23.3022 23.5435 23.548C23.2956 23.7938 22.9857 23.9167 22.6139 23.9167ZM6.8237 11.1417L9.23111 8.80601C9.26106 8.77626 9.28157 8.73514 9.29266 8.68264C9.30393 8.63033 9.30588 8.58172 9.29849 8.5368L8.6612 5.58659C8.65381 5.5267 8.6295 5.48179 8.58828 5.45184C8.54725 5.42209 8.49679 5.40722 8.43691 5.40722H5.56282C5.51791 5.40722 5.48048 5.42209 5.45053 5.45184C5.42078 5.48179 5.40591 5.51922 5.40591 5.56414C5.42224 6.37341 5.54785 7.23568 5.78274 8.15093C6.01763 9.06637 6.36461 10.0633 6.8237 11.1417ZM17.2161 21.3252C18.0133 21.7172 18.8861 22.0224 19.8344 22.2408C20.7827 22.4591 21.6494 22.5803 22.4346 22.6042C22.4795 22.6042 22.5169 22.5892 22.5469 22.5593C22.5766 22.5293 22.5915 22.4919 22.5915 22.447V19.5843C22.5915 19.5244 22.5766 19.4739 22.5469 19.4329C22.5169 19.3917 22.472 19.3674 22.4121 19.36L19.767 18.8148C19.7221 18.8073 19.6828 18.8091 19.6492 18.8204C19.6155 18.8317 19.58 18.8522 19.5427 18.8819L17.2161 21.3252Z" fill="#1C1B1F"/>
</g>
</svg>
