<svg width="103" height="103" viewBox="0 0 103 103" fill="none" xmlns="http://www.w3.org/2000/svg">
<path fill-rule="evenodd" clip-rule="evenodd" d="M44.437 25.6073H36.1934C35.6126 25.6073 35.141 25.136 35.141 24.555C35.141 23.9739 35.6124 23.5027 36.1934 23.5027L44.437 23.5026C45.0181 23.5026 45.4892 23.974 45.4892 24.555C45.4893 25.136 45.0179 25.6074 44.437 25.6073Z" fill="#404040"/>
<path fill-rule="evenodd" clip-rule="evenodd" d="M49.5424 16.4757H35.0997C34.5187 16.4757 34.0473 16.0046 34.0473 15.4236C34.0473 14.8425 34.5186 14.3712 35.0996 14.3712L49.5424 14.371C50.1232 14.371 50.5945 14.8425 50.5945 15.4236C50.5947 16.0044 50.1231 16.4759 49.5424 16.4757Z" fill="#404040"/>
<path fill-rule="evenodd" clip-rule="evenodd" d="M49.541 34.7314H37.2853C36.7042 34.7314 36.2328 34.262 36.2328 33.6792C36.2329 33.0982 36.7042 32.6268 37.2852 32.6268L49.541 32.6267C50.1218 32.6267 50.5932 33.0982 50.5932 33.6792C50.5934 34.262 50.1218 34.7316 49.541 34.7314Z" fill="#404040"/>
<path fill-rule="evenodd" clip-rule="evenodd" d="M47.6447 78.6878C47.0636 78.6878 46.5922 78.2165 46.5922 77.6355L46.5923 67.1977C46.5923 66.6166 47.0635 66.1454 47.6446 66.1454C48.2257 66.1453 48.6969 66.6167 48.6969 67.1978L48.697 77.6354C48.697 78.2165 48.2255 78.6879 47.6447 78.6878Z" fill="#404040"/>
<path fill-rule="evenodd" clip-rule="evenodd" d="M55.2051 78.6878C54.6241 78.6878 54.1527 78.2165 54.1527 77.6355V67.1977C54.1527 66.6166 54.6241 66.1454 55.2051 66.1454C55.7861 66.1453 56.2575 66.6167 56.2575 67.1978V77.6354C56.2575 78.2165 55.786 78.6879 55.2051 78.6878Z" fill="#404040"/>
<path fill-rule="evenodd" clip-rule="evenodd" d="M46.1153 47.3452C45.5343 47.3452 45.0629 46.8739 45.0629 46.2929L45.063 42.8069C45.063 42.2258 45.5342 41.7546 46.1153 41.7546C46.6964 41.7545 47.1676 42.226 47.1676 42.807L47.1677 46.2929C47.1677 46.8739 46.6962 47.3453 46.1153 47.3452Z" fill="#404040"/>
<path fill-rule="evenodd" clip-rule="evenodd" d="M51.4259 47.3452C50.8449 47.3452 50.3734 46.8739 50.3734 46.2929L50.3736 42.8069C50.3736 42.2258 50.8449 41.7546 51.4258 41.7546C52.007 41.7545 52.4782 42.226 52.4782 42.807L52.4783 46.2929C52.4783 46.8739 52.0068 47.3453 51.4259 47.3452Z" fill="#404040"/>
<path fill-rule="evenodd" clip-rule="evenodd" d="M56.7364 47.3452C56.1554 47.3452 55.684 46.8739 55.684 46.2929L55.684 42.8069C55.684 42.2258 56.1554 41.7546 56.7364 41.7546C57.3175 41.7545 57.7887 42.226 57.7887 42.807L57.7888 46.2929C57.7888 46.8739 57.3173 47.3453 56.7364 47.3452Z" fill="#404040"/>
<path fill-rule="evenodd" clip-rule="evenodd" d="M59.9961 52.2124H42.8549C41.1448 52.2124 39.7526 50.8222 39.7526 49.112L39.7527 42.8069C39.7527 42.2258 40.224 41.7546 40.805 41.7546C41.3861 41.7545 41.8573 42.226 41.8573 42.807L41.8574 49.112C41.8574 49.6618 42.3049 50.1078 42.8549 50.1078L59.9961 50.1077C60.5459 50.1077 60.9935 49.662 60.9935 49.112L60.9936 42.8069C60.9936 42.2258 61.4649 41.7546 62.0459 41.7546C62.627 41.7545 63.0983 42.226 63.0983 42.807L63.0983 49.112C63.0983 50.8221 61.7061 52.2125 59.9961 52.2124Z" fill="#404040"/>
<path fill-rule="evenodd" clip-rule="evenodd" d="M56.8096 68.2502H46.0429C44.8425 68.2502 43.8669 67.2746 43.8669 66.0743L43.867 51.1602C43.867 50.5791 44.3382 50.1079 44.9192 50.1079C45.5002 50.1078 45.9716 50.5792 45.9716 51.1603L45.9718 66.0742C45.9718 66.1144 46.0045 66.1456 46.0428 66.1456L56.8096 66.1455C56.8479 66.1455 56.8807 66.1144 56.8807 66.0743L56.8808 51.1602C56.8808 50.5791 57.3521 50.1079 57.9331 50.1079C58.5142 50.1078 58.9855 50.5792 58.9855 51.1603L58.9855 66.0742C58.9855 67.2745 58.0098 68.2502 56.8096 68.2502Z" fill="#404040"/>
<path fill-rule="evenodd" clip-rule="evenodd" d="M43.8633 81.3133L41.1921 90.5308C40.8797 91.6086 41.0861 92.7415 41.7621 93.6404C42.4365 94.5374 43.4668 95.0509 44.5904 95.0509L77.444 95.0508C79.3148 95.0508 80.8384 93.5289 80.8384 91.6581C80.8384 90.7024 80.4529 89.8183 79.7532 89.1697C79.0536 88.521 78.1454 88.2014 77.1936 88.2726C73.0373 88.5812 68.8788 87.4157 65.486 84.9931L57.6957 79.4261C57.6883 79.4223 57.6828 79.417 57.6755 79.4134C57.0526 78.9455 56.2778 78.688 55.4959 78.688L47.3583 78.688C45.7506 78.688 44.3128 79.7677 43.8633 81.3133ZM77.444 97.1555H44.5905C42.7982 97.1555 41.1537 96.3353 40.0795 94.9047C39.0033 93.4722 38.6727 91.6654 39.1695 89.9443L41.8409 80.7269C42.5499 78.2859 44.8187 76.5833 47.3583 76.5833L55.4959 76.5833C56.7256 76.5833 57.9441 76.9871 58.9288 77.7215L66.7085 83.2794C69.7028 85.4188 73.3714 86.4456 77.0382 86.1734C78.5566 86.0601 80.0675 86.5899 81.1856 87.6258C82.302 88.6634 82.9431 90.1325 82.9431 91.6581C82.9432 94.689 80.4767 97.1556 77.444 97.1555Z" fill="#404040"/>
<path fill-rule="evenodd" clip-rule="evenodd" d="M36.2895 7.34973C36.0065 7.34973 35.7469 7.46683 35.5605 7.67695C35.3723 7.88884 35.2865 8.15926 35.3211 8.44066L39.2073 40.8957C39.2659 41.3855 39.6822 41.7546 40.1756 41.7546L62.6736 41.7545C63.1668 41.7545 63.5833 41.3855 63.6418 40.8959L67.528 8.44054C67.5627 8.15914 67.4767 7.88884 67.2904 7.67695C67.1023 7.46666 66.8427 7.3499 66.5596 7.3499L36.2895 7.34973ZM62.6736 43.8592H40.1756C38.6191 43.8592 37.3053 42.6937 37.1171 41.148L33.231 8.69087C33.127 7.81567 33.401 6.93699 33.9856 6.27923C34.5704 5.62159 35.4089 5.24517 36.2895 5.24517L66.5597 5.245C67.4403 5.245 68.2788 5.62159 68.8634 6.27923C69.4482 6.93864 69.7221 7.81579 69.618 8.69093L65.732 41.1461C65.5474 42.6917 64.2337 43.8593 62.6736 43.8592Z" fill="#404040"/>
<path fill-rule="evenodd" clip-rule="evenodd" d="M76.6367 64.5977C76.3661 64.5977 76.0975 64.4955 75.8911 64.289C75.4801 63.8779 75.48 63.2129 75.8911 62.8018C78.9843 59.7085 80.6889 55.5887 80.6889 51.2002C80.6889 46.8115 78.9843 42.6918 75.8911 39.5986C75.4801 39.1874 75.48 38.5225 75.8911 38.1114C76.3022 37.7003 76.969 37.7003 77.3802 38.1114C80.8716 41.6009 82.7936 46.2508 82.7936 51.2002C82.7936 56.1496 80.8716 60.7994 77.3802 64.289C77.1756 64.4954 76.9051 64.5978 76.6367 64.5977Z" fill="#404040"/>
<path fill-rule="evenodd" clip-rule="evenodd" d="M71.49 59.4546C71.2213 59.4546 70.9509 59.3504 70.7462 59.1458C70.3353 58.7345 70.3352 58.0679 70.7462 57.6568C74.3055 54.0976 74.3053 48.3043 70.7462 44.7453C70.3353 44.334 70.3352 43.6673 70.7462 43.2562C71.1574 42.8451 71.8224 42.8451 72.2334 43.2562C76.6147 47.6373 76.6146 54.7646 72.2334 59.1458C72.0289 59.3504 71.7584 59.4546 71.49 59.4546Z" fill="#404040"/>
<path fill-rule="evenodd" clip-rule="evenodd" d="M26.2142 64.5977C25.9458 64.5977 25.677 64.4955 25.4706 64.289C21.9793 60.7994 20.0571 56.1496 20.0571 51.2002C20.0573 46.2508 21.9791 41.601 25.4706 38.1114C25.8816 37.7003 26.5485 37.7003 26.9596 38.1114C27.3708 38.5225 27.3707 39.1876 26.9596 39.5986C23.8665 42.6917 22.1619 46.8117 22.1619 51.2002C22.162 55.5887 23.8665 59.7086 26.9596 62.8018C27.3708 63.2128 27.3707 63.8779 26.9596 64.289C26.7533 64.4954 26.4846 64.5978 26.2142 64.5977Z" fill="#404040"/>
<path fill-rule="evenodd" clip-rule="evenodd" d="M31.3609 59.4546C31.0925 59.4546 30.8219 59.3504 30.6172 59.1458C26.2362 54.7646 26.236 47.6374 30.6172 43.2562C31.0284 42.8451 31.6933 42.8451 32.1044 43.2562C32.5156 43.6672 32.5155 44.3341 32.1044 44.7453C28.5454 48.3042 28.5454 54.0977 32.1044 57.6568C32.5156 58.0678 32.5155 58.7347 32.1044 59.1458C31.8998 59.3504 31.6294 59.4546 31.3609 59.4546Z" fill="#404040"/>
</svg>
