<svg width="36" height="36" viewBox="0 0 36 36" fill="none" xmlns="http://www.w3.org/2000/svg">
<mask id="mask0_1_493" style="mask-type:alpha" maskUnits="userSpaceOnUse" x="0" y="0" width="36" height="36">
<rect width="36" height="36" fill="#D9D9D9"/>
</mask>
<g mask="url(#mask0_1_493)">
<path d="M10.9132 32.3134C10.2447 32.3134 9.6795 32.0783 9.2175 31.608C8.75525 31.1375 8.52412 30.5661 8.52412 29.8939C8.52412 29.2216 8.75775 28.653 9.225 28.188C9.6925 27.723 10.2604 27.4905 10.9286 27.4905C11.5966 27.4905 12.1644 27.7256 12.6319 28.1959C13.0991 28.6661 13.3327 29.2375 13.3327 29.91C13.3327 30.5823 13.0976 31.1509 12.6274 31.6159C12.1569 32.0809 11.5855 32.3134 10.9132 32.3134ZM25.4516 32.3134C24.7834 32.3134 24.2181 32.0783 23.7559 31.608C23.2936 31.1375 23.0625 30.5661 23.0625 29.8939C23.0625 29.2216 23.2962 28.653 23.7637 28.188C24.231 27.723 24.7987 27.4905 25.467 27.4905C26.1352 27.4905 26.703 27.7256 27.1702 28.1959C27.6375 28.6661 27.8711 29.2375 27.8711 29.91C27.8711 30.5823 27.636 31.1509 27.1657 31.6159C26.6952 32.0809 26.1239 32.3134 25.4516 32.3134ZM8.72587 8.05388L12.9086 16.7768H23.3479C23.4346 16.7768 23.514 16.7551 23.586 16.7119C23.6582 16.6686 23.7135 16.6086 23.7517 16.5319L28.1944 8.45775C28.2519 8.352 28.2566 8.25825 28.2086 8.1765C28.1606 8.09475 28.0789 8.05388 27.9634 8.05388H8.72587ZM7.86075 6.35213H28.6661C29.2789 6.35213 29.7424 6.617 30.0566 7.14675C30.3706 7.6765 30.3776 8.2135 30.0776 8.75775L25.4677 17.1098C25.218 17.5245 24.8977 17.8564 24.507 18.1054C24.116 18.3544 23.6941 18.4789 23.2414 18.4789H12.15L10.0789 22.3065C10.0116 22.422 10.0116 22.5471 10.0789 22.6819C10.1461 22.8164 10.2519 22.8836 10.3961 22.8836H27.8711V24.5854H10.647C9.70275 24.5854 9.02112 24.2595 8.60212 23.6078C8.18287 22.9558 8.18662 22.2355 8.61337 21.447L11.028 17.0509L5.35687 5.07675H2.547V3.375H6.45862L7.86075 6.35213Z" fill="white"/>
</g>
</svg>
