<svg width="103" height="104" viewBox="0 0 103 104" fill="none" xmlns="http://www.w3.org/2000/svg">
<path d="M81.524 21.6518C76.876 21.6518 73.234 25.2218 73.234 29.7798V40.3719C73.234 40.7139 73.38 41.0379 73.634 41.2659L75.528 42.9619V45.0039C74.252 45.0799 73.234 46.1399 73.234 47.4339V79.9099C73.234 81.2539 74.328 82.3479 75.672 82.3479H80.284C81.628 82.3479 82.722 81.2539 82.722 79.9099V47.4339V22.8518C82.724 22.1878 82.186 21.6518 81.524 21.6518ZM75.634 29.7798C75.634 26.9698 77.616 24.6918 80.324 24.1658V44.9979C80.312 44.9979 80.298 44.9959 80.286 44.9959H77.928V42.4239C77.928 42.0819 77.782 41.7579 77.528 41.5299L75.634 39.8339V29.7798ZM80.286 79.9479H75.674C75.656 79.9479 75.636 79.9279 75.636 79.9099V53.0059H80.326V79.9099C80.324 79.9279 80.304 79.9479 80.286 79.9479ZM80.324 50.6059H75.634V47.4339C75.634 47.4159 75.654 47.3959 75.672 47.3959H80.284C80.302 47.3959 80.322 47.4159 80.322 47.4339V50.6059H80.324ZM26.536 45.0299V30.2838C26.536 28.4298 25.99 26.8098 24.868 25.3338L22.43 22.1258C22.03 21.5978 21.276 21.4958 20.748 21.8958C20.22 22.2958 20.118 23.0498 20.518 23.5778L22.956 26.7858C23.76 27.8438 24.134 28.9558 24.134 30.2838V45.0299C22.14 45.2739 20.59 46.9759 20.59 49.0359V78.3119C20.59 80.5379 22.402 82.3499 24.628 82.3499H26.04C28.266 82.3499 30.078 80.5379 30.078 78.3119V49.0359C30.082 46.9759 28.53 45.2739 26.536 45.0299ZM24.63 47.3959H26.042C26.946 47.3959 27.68 48.1299 27.68 49.0339V50.9339H22.99V49.0339C22.992 48.1319 23.726 47.3959 24.63 47.3959ZM27.682 53.3359V74.0119H22.992V53.3359H27.682ZM26.042 79.9479H24.63C23.726 79.9479 22.992 79.2139 22.992 78.3099V76.4099H27.682V78.3099C27.682 79.2139 26.946 79.9479 26.042 79.9479ZM61.912 66.8779C59.298 66.8779 56.986 68.1819 55.584 70.1719L52.81 58.1319L60.878 23.1218C61.026 22.4758 60.624 21.8318 59.978 21.6838C59.332 21.5358 58.688 21.9378 58.54 22.5838L51.58 52.7899L44.62 22.5838C44.472 21.9378 43.828 21.5358 43.182 21.6838C42.536 21.8318 42.134 22.4758 42.282 23.1218L50.35 58.1319L47.576 70.1719C46.174 68.1819 43.862 66.8779 41.248 66.8779C36.982 66.8779 33.512 70.3479 33.512 74.6139C33.512 78.8799 36.982 82.3499 41.248 82.3499C45.462 82.3499 48.898 78.9619 48.98 74.7679L50.258 69.2219H52.906L54.184 74.7679C54.266 78.9619 57.702 82.3499 61.916 82.3499C66.182 82.3499 69.652 78.8799 69.652 74.6139C69.652 70.3479 66.178 66.8779 61.912 66.8779ZM41.246 79.9479C38.304 79.9479 35.91 77.5539 35.91 74.6119C35.91 71.6699 38.304 69.2759 41.246 69.2759C44.188 69.2759 46.582 71.6699 46.582 74.6119C46.58 77.5559 44.188 79.9479 41.246 79.9479ZM50.808 66.8199L51.578 63.4759L52.348 66.8199H50.808ZM61.912 79.9479C58.97 79.9479 56.576 77.5539 56.576 74.6119C56.576 71.6699 58.97 69.2759 61.912 69.2759C64.854 69.2759 67.248 71.6699 67.248 74.6119C67.248 77.5559 64.854 79.9479 61.912 79.9479ZM51.5 3.7998C24.922 3.7998 3.29999 25.4218 3.29999 51.9999C3.29999 78.5779 24.922 100.2 51.5 100.2C78.078 100.2 99.7 78.5779 99.7 51.9999C99.7 25.4218 78.078 3.7998 51.5 3.7998ZM51.5 97.7999C26.246 97.7999 5.69999 77.2539 5.69999 51.9999C5.69999 26.7458 26.246 6.19981 51.5 6.19981C76.754 6.19981 97.3 26.7458 97.3 51.9999C97.3 77.2539 76.754 97.7999 51.5 97.7999Z" fill="black" fill-opacity="0.75"/>
</svg>
