<svg width="41" height="40" viewBox="0 0 41 40" fill="none" xmlns="http://www.w3.org/2000/svg">
<mask id="mask0_1_558" style="mask-type:alpha" maskUnits="userSpaceOnUse" x="0" y="0" width="41" height="40">
<rect x="0.5" width="40" height="40" fill="#D9D9D9"/>
</mask>
<g mask="url(#mask0_1_558)">
<path d="M19.6216 30.5737H21.5128V22.1504L25.1378 25.7916L26.4712 24.4583L20.4999 18.6058L14.5962 24.5254L15.9132 25.8429L19.6216 22.1504V30.5737ZM10.4037 35.8333C9.75005 35.8333 9.18602 35.5961 8.71158 35.1216C8.23713 34.6472 7.99991 34.0832 7.99991 33.4295V6.57038C7.99991 5.91677 8.23713 5.35274 8.71158 4.87829C9.18602 4.40385 9.75005 4.16663 10.4037 4.16663H24.8845L32.9999 12.282V33.4295C32.9999 34.0832 32.7627 34.6472 32.2882 35.1216C31.8138 35.5961 31.2498 35.8333 30.5962 35.8333H10.4037ZM23.9391 13.1345V6.05788H10.4037C10.2756 6.05788 10.1581 6.11121 10.0512 6.21788C9.94449 6.32482 9.89116 6.44232 9.89116 6.57038V33.4295C9.89116 33.5576 9.94449 33.6751 10.0512 33.782C10.1581 33.8887 10.2756 33.942 10.4037 33.942H30.5962C30.7242 33.942 30.8417 33.8887 30.9487 33.782C31.0553 33.6751 31.1087 33.5576 31.1087 33.4295V13.1345H23.9391Z" fill="#EB1700"/>
</g>
</svg>
