<svg width="107" height="106" viewBox="0 0 107 106" fill="none" xmlns="http://www.w3.org/2000/svg">
<path d="M69.6399 78.2804H72.1999V92.3604H69.6399V78.2804Z" fill="#404040"/>
<path d="M74.7598 79.5603H67.0798V70.6003H69.6398V77.0003H72.1998V70.6003H74.7598V79.5603Z" fill="#404040"/>
<path d="M73.4799 71.8804H68.3599C66.243 71.8804 64.5199 70.1573 64.5199 68.0404V62.9204H67.0799V68.0404C67.0799 68.7467 67.6536 69.3204 68.3599 69.3204H73.4799C74.1861 69.3204 74.7599 68.7467 74.7599 68.0404V62.9204H77.3199V68.0404C77.3199 70.1573 75.5968 71.8804 73.4799 71.8804Z" fill="#404040"/>
<path d="M79.88 64.2005H61.96V34.7605H64.52V61.6405H77.32V34.7605H79.88V64.2005Z" fill="#404040"/>
<path d="M35.0798 52.6804H37.6398V69.3204H35.0798V52.6804Z" fill="#404040"/>
<path d="M40.1998 53.9605H32.5198V45.0005H35.0798V51.4005H37.6398V45.0005H40.1998V53.9605Z" fill="#404040"/>
<path d="M38.9198 46.2804H33.7998C31.683 46.2804 29.9598 44.5573 29.9598 42.4404V37.3204H32.5198V42.4404C32.5198 43.1467 33.0936 43.7204 33.7998 43.7204H38.9198C39.6261 43.7204 40.1998 43.1467 40.1998 42.4404V37.3204H42.7598V42.4404C42.7598 44.5573 41.0367 46.2804 38.9198 46.2804Z" fill="#404040"/>
<path d="M41.4799 38.6004H31.2399C29.123 38.6004 27.3999 36.8772 27.3999 34.7604V13.0004H45.3199V34.7604C45.3199 36.8772 43.5968 38.6004 41.4799 38.6004ZM29.9599 15.5604V34.7604C29.9599 35.4666 30.5337 36.0404 31.2399 36.0404H41.4799C42.1862 36.0404 42.7599 35.4666 42.7599 34.7604V15.5604H29.9599Z" fill="#404040"/>
<path d="M69.6406 34.7605H72.2006V62.9205H69.6406V34.7605Z" fill="#404040"/>
<path d="M72.2 19.4004H74.76V29.6404H72.2V19.4004Z" fill="#404040"/>
<path d="M67.0798 19.4004H69.6398V29.6404H67.0798V19.4004Z" fill="#404040"/>
<path d="M77.3197 20.6804H64.5197C62.4028 20.6804 60.6797 18.9572 60.6797 16.8404C60.6797 14.7235 62.4028 13.0004 64.5197 13.0004H77.3197C79.4366 13.0004 81.1597 14.7235 81.1597 16.8404C81.1597 18.9572 79.4366 20.6804 77.3197 20.6804ZM64.5197 15.5604C63.8134 15.5604 63.2397 16.1341 63.2397 16.8404C63.2397 17.5466 63.8134 18.1204 64.5197 18.1204H77.3197C78.0259 18.1204 78.5997 17.5466 78.5997 16.8404C78.5997 16.1341 78.0259 15.5604 77.3197 15.5604H64.5197Z" fill="#404040"/>
<path d="M84.9999 36.0404H56.8324V28.3604H84.9999V36.0404ZM59.3924 33.4804H82.4399V30.9204H59.3924V33.4804Z" fill="#404040"/>
<path d="M44.0393 92.3604H28.6793C25.1505 92.3604 22.2793 89.4892 22.2793 85.9604V69.9154L22.8487 69.5354C24.8968 68.171 26.1193 65.886 26.1193 63.426V62.9204H28.6793V63.426C28.6793 66.5098 27.2562 69.3867 24.8393 71.256V85.9604C24.8393 88.0773 26.5624 89.8004 28.6793 89.8004H44.0393C46.1562 89.8004 47.8793 88.0773 47.8793 85.9604V71.256C45.4624 69.3867 44.0393 66.5098 44.0393 63.426V62.9204H46.5993V63.426C46.5993 65.8873 47.8218 68.171 49.8699 69.5354L50.4393 69.9154V85.9604C50.4393 89.4892 47.568 92.3604 44.0393 92.3604Z" fill="#404040"/>
<path d="M67.0798 41.1604H74.7598V43.7204H67.0798V41.1604Z" fill="#404040"/>
<path d="M67.0798 46.2803H74.7598V48.8403H67.0798V46.2803Z" fill="#404040"/>
<path d="M67.0798 51.4004H74.7598V53.9604H67.0798V51.4004Z" fill="#404040"/>
<path d="M67.0798 56.5203H74.7598V59.0803H67.0798V56.5203Z" fill="#404040"/>
<path d="M49.16 64.2003H23.56C22.1481 64.2003 21 63.0521 21 61.6403V59.0803C21 57.6684 22.1481 56.5203 23.56 56.5203H49.16C50.5719 56.5203 51.72 57.6684 51.72 59.0803V61.6403C51.72 63.0521 50.5719 64.2003 49.16 64.2003ZM23.56 59.0803V61.6403H49.1625L49.16 59.0803H23.56Z" fill="#404040"/>
<path d="M36.3599 75.7203C32.9143 75.7203 31.1693 75.0228 29.4849 74.3497C27.9568 73.7378 26.5143 73.1603 23.5599 73.1603V70.6003C27.0056 70.6003 28.7506 71.2978 30.4349 71.971C31.9631 72.5828 33.4056 73.1603 36.3599 73.1603C39.3143 73.1603 40.7568 72.5828 42.2849 71.971C43.9693 71.2978 45.7143 70.6003 49.1599 70.6003V73.1603C46.2056 73.1603 44.7631 73.7378 43.2349 74.3497C41.5506 75.0228 39.8056 75.7203 36.3599 75.7203Z" fill="#404040"/>
<path d="M28.6799 84.6803H31.2399V87.2403H28.6799V84.6803Z" fill="#404040"/>
<path d="M40.2 80.8403H42.76V83.4003H40.2V80.8403Z" fill="#404040"/>
<path d="M29.9598 78.2804H32.5198V80.8404H29.9598V78.2804Z" fill="#404040"/>
<path d="M44.0399 25.8004C40.5774 25.8004 38.1774 24.771 35.8556 23.7766C33.6756 22.8423 31.6174 21.9604 28.6799 21.9604V19.4004C32.1424 19.4004 34.5424 20.4298 36.8643 21.4241C39.0443 22.3585 41.1024 23.2404 44.0399 23.2404V25.8004Z" fill="#404040"/>
</svg>
