<svg width="104" height="46" viewBox="0 0 104 46" fill="none" xmlns="http://www.w3.org/2000/svg">
<path d="M89.5654 46C99.5971 46 103.5 39.7136 103.5 31.485V1.00566H96.0521V33.4964C96.0521 38.7731 94.1298 41.9163 89.5654 41.9163C85.0009 41.9163 83.0786 38.5858 83.0786 32.8653V26.8313L75.6307 28.7775V31.481C75.6307 39.7136 79.5337 45.9959 89.5654 45.9959M49.9211 41.4155C44.1542 41.4155 40.6132 36.5134 40.6132 31.2978C40.6132 28.0283 41.9946 25.0113 44.2749 23.3176L57.8476 38.8382C55.3261 40.4098 52.501 41.4155 49.9211 41.4155ZM57.19 18.9163C62.0541 18.9163 65.0581 21.8681 65.0581 26.9616C65.0581 29.2253 64.4589 31.5502 63.1359 33.6877L51.3648 20.1133C53.466 19.2338 55.509 18.9203 57.19 18.9203M49.9211 3.3305C53.466 3.3305 55.5673 5.46805 55.5673 9.36449C55.5673 12.9474 53.8863 16.339 49.7421 18.2893L47.1583 15.2723C44.8741 12.6339 44.2165 10.9972 44.2165 9.05098C44.2165 5.40697 46.4384 3.3305 49.9211 3.3305ZM64.9959 35.8212C68.2412 31.7985 70.1012 27.4013 70.1012 23.5659C70.1012 18.7901 67.0388 15.5858 62.2331 15.5858C59.7115 15.5858 56.8865 16.339 55.0264 17.0922L54.9058 16.8398C59.4703 14.2625 61.3926 11.8766 61.3926 8.54611C61.3926 3.77022 57.3067 0 50.1001 0C41.8117 0 37.7259 4.84103 37.7259 10.871C37.7259 14.1404 39.0489 17.4057 42.5316 21.3673L42.5899 21.4935C36.7025 24.4454 34.0019 29.2253 34.0019 34.1234C34.0019 40.5971 38.7454 46 46.0726 46C50.2752 46 55.2016 44.176 59.6454 40.9106L63.2487 44.9943H72.6772V44.6808L64.9881 35.8212H64.9959ZM13.9346 46C23.9663 46 27.8693 39.7136 27.8693 31.485V1.00566H20.4214V33.4964C20.4214 38.7731 18.4991 41.9163 13.9346 41.9163C9.37018 41.9163 7.44789 38.5858 7.44789 32.8653V26.8313L0 28.7816V31.485C0 39.7176 3.90294 46 13.9346 46Z" fill="white"/>
</svg>
